<?xml version="1.0" standalone="no" ?>
<!-- <svg viewBox="0 0 200 200" xmlns="http://www.w3.org/2000/svg">
  <path fill="#014D40" d="M35.7,-44.7C46.1,-33.9,54.1,-22.4,61.3,-7.1C68.4,8.3,74.6,27.5,69.2,42.7C63.7,58,46.5,69.2,28.4,74.1C10.3,79,-8.6,77.4,-23.9,70C-39.1,62.5,-50.6,49.2,-61.1,33.8C-71.7,18.5,-81.4,1.2,-77.9,-12.9C-74.4,-27.1,-57.8,-38,-42.6,-48C-27.4,-58,-13.7,-66.9,-0.5,-66.3C12.7,-65.7,25.3,-55.5,35.7,-44.7Z" transform="translate(100 100)" />
</svg> -->
<svg viewBox="0 0 200 200" xmlns="http://www.w3.org/2000/svg">
  <path fill="#014D40" d="M45,-49.1C60.6,-40.5,77.2,-28.5,82,-12.7C86.8,3,80,22.6,68.5,36.9C57.1,51.1,41.1,60,24.6,64.7C8.2,69.3,-8.7,69.7,-26,65.9C-43.4,62,-61.2,53.8,-69.1,40C-76.9,26.2,-74.8,6.7,-69.8,-10.7C-64.8,-28.1,-57,-43.4,-44.9,-52.6C-32.8,-61.8,-16.4,-65,-0.9,-63.9C14.7,-62.9,29.4,-57.7,45,-49.1Z" transform="translate(100 100)" />
</svg>